<?xml version="1.0" encoding="UTF-8" standalone="no"?>
<!-- Created with Inkscape (http://www.inkscape.org/) -->

<svg
   xmlns:dc="http://purl.org/dc/elements/1.1/"
   xmlns:cc="http://creativecommons.org/ns#"
   xmlns:rdf="http://www.w3.org/1999/02/22-rdf-syntax-ns#"
   xmlns:svg="http://www.w3.org/2000/svg"
   xmlns="http://www.w3.org/2000/svg"
   version="1.1"
   width="303.45999"
   height="302.76001"
   viewBox="0 0 8.5643151 8.5445599"
   id="svg2985"
   xml:space="preserve"
   style="fill-rule:evenodd"><metadata
     id="metadata3168"><rdf:RDF><cc:Work
         rdf:about=""><dc:format>image/svg+xml</dc:format><dc:type
           rdf:resource="http://purl.org/dc/dcmitype/StillImage" /><dc:title></dc:title></cc:Work></rdf:RDF></metadata><defs
     id="defs2987"><style
       type="text/css"
       id="style2989" /><marker
       refX="0"
       refY="0"
       orient="auto"
       id="Arrow1Sstart"
       style="overflow:visible"><path
         d="M 0,0 5,-5 -12.5,0 5,5 0,0 z"
         transform="matrix(0.2,0,0,0.2,1.2,0)"
         id="path30764"
         style="fill-rule:evenodd;stroke:#000000;stroke-width:1pt" /></marker><marker
       refX="0"
       refY="0"
       orient="auto"
       id="marker4954"
       style="overflow:visible"><path
         d="M 0,0 5,-5 -12.5,0 5,5 0,0 z"
         transform="matrix(0.2,0,0,0.2,1.2,0)"
         id="path4956"
         style="fill-rule:evenodd;stroke:#000000;stroke-width:1pt" /></marker><marker
       refX="0"
       refY="0"
       orient="auto"
       id="Arrow1Sstart-4"
       style="overflow:visible"><path
         d="M 0,0 5,-5 -12.5,0 5,5 0,0 z"
         transform="matrix(0.2,0,0,0.2,1.2,0)"
         id="path30764-9"
         style="fill-rule:evenodd;stroke:#000000;stroke-width:1pt" /></marker></defs><g
     transform="translate(0,-11.737041)"
     id="g4487"><rect
       width="531.64648"
       height="474.81531"
       rx="0.0017897162"
       ry="0.0019629544"
       x="-106.3293"
       y="-80.39212"
       transform="matrix(0.02822222,0,0,0.02822222,0,11.737041)"
       id="rect5032"
       style="fill:#ffffff;fill-opacity:1;stroke:#ff0000;stroke-width:1.60000002;stroke-linecap:round;stroke-linejoin:round;stroke-miterlimit:4;stroke-opacity:1;stroke-dasharray:none" /><g
       transform="translate(-0.88085015,7.8672979)"
       id="g4718"><g
         id="g4659"><g
           id="g4601"><g
             id="g4544"><path
               d="M 5.2831227,10.55842 4.6055527,10.56802 C 4.7836627,11.54405 4.8537427,12.23171 5.0348327,12.24695 5.4550027,12.28229 5.3186627,11.52579 5.2831227,10.55842 z"
               id="path3074"
               style="fill:#fefefe;stroke:#201e1e;stroke-width:0.05" /><path
               d="M 7.4255527,11.15432 C 7.8079027,11.10181 8.3050827,11.01678 8.9113327,10.77832 8.9082027,10.67141 8.9050727,10.56449 8.9019527,10.45758 5.1773827,10.58888 4.9152427,10.53977 1.2038327,10.40116 1.2814927,10.5747 1.5231527,10.83325 2.2760227,11.11379 3.0591327,11.35036 5.1858927,11.42997 7.4255527,11.15432 z"
               id="path3076"
               style="fill:#fefefe;stroke:#201e1e;stroke-width:0.05" /><path
               d="M 3.6194827,10.90432 C 3.6624127,10.90433 3.7052327,10.99034 3.7481027,10.99034 3.7909827,10.99034 3.8338527,10.90432 3.8767327,10.90432 3.9196127,10.90432 3.9624827,10.99034 4.0053627,10.99034 4.0482327,10.99034 4.0911127,10.90432 4.1339927,10.90432 4.1768627,10.90432 4.2197427,10.99034 4.2626127,10.99034 4.3054927,10.99034 4.3483627,10.90432 4.3912427,10.90432 4.4341227,10.90432 4.4769927,10.99034 4.5198727,10.99034 4.5627527,10.99034 4.6056227,10.90432 4.6485027,10.90432 4.6913727,10.90432 4.7342527,10.99034 4.7771227,10.99034 4.8200027,10.99034 4.8628827,10.90432 4.9057527,10.90432 4.9486327,10.90432 4.9915027,10.99034 5.0343827,10.99034 5.0772627,10.99034 5.1201327,10.90432 5.1630127,10.90432 5.2058827,10.90432 5.2487627,10.99034 5.2916327,10.99034 5.3345127,10.99034 5.3773927,10.90432 5.4202627,10.90432 5.4631327,10.90432 5.5060127,10.99034 5.5488927,10.99034 5.5917627,10.99034 5.6346427,10.90432 5.6775227,10.90432 5.7203927,10.90432 5.7632727,10.99034 5.8061427,10.99034 5.8490227,10.99034 5.8918927,10.90432 5.9347727,10.90432 5.9776527,10.90432 6.0205227,10.99034 6.0634027,10.99034 6.1062827,10.99034 6.1491527,10.90432 6.1920327,10.90432 6.2349027,10.90432 6.2777827,10.99034 6.3206527,10.99034 6.3635327,10.99034 6.4064027,10.90432 6.4492827,10.90432 6.4921627,10.90432 6.5350327,10.99034 6.5779127,10.99034 6.6207927,10.99034 6.6636627,10.90432 6.7065427,10.90432 6.7494127,10.90432 6.7922927,10.99034 6.8351627,10.99034 6.8780427,10.99034 6.9209227,10.90432 6.9637927,10.90432 7.0066727,10.90432 7.0495427,10.99034 7.0924227,10.99034 7.1353027,10.99034 7.1781727,10.90432 7.2210527,10.90432 7.2639227,10.90432 7.3068027,10.99034 7.3496827,10.99034 7.3925527,10.99034 7.4354327,10.90432 7.4783027,10.90432 7.5211827,10.90432 7.5640527,10.99034 7.6069327,10.99034"
               id="path3078"
               style="fill:none;stroke:#201e1e;stroke-width:0.05" /><path
               d="M 9.2790927,10.90432 C 9.2362127,10.90432 9.1933427,10.99034 9.1504627,10.99034 9.1075927,10.99034 9.0647127,10.90432 9.0218427,10.90432 8.9789627,10.90432 8.9360827,10.99034 8.8932127,10.99034 8.8503327,10.99034 8.8074627,10.90432 8.7645827,10.90432 8.7217027,10.90432 8.6788327,10.99034 8.6359527,10.99034 8.5930827,10.99034 8.5502027,10.90432 8.5073227,10.90432 8.4644527,10.90432 8.4215727,10.99034 8.3787027,10.99034 8.3358227,10.99034 8.2929527,10.90432 8.2500727,10.90432 8.2071927,10.90432 8.1643227,10.99034 8.1214427,10.99034 8.0785627,10.99034 8.0356927,10.90432 7.9928127,10.90432 7.9499427,10.90432 7.9070627,10.99034 7.8641927,10.99034 7.8213127,10.99034 7.7784427,10.90432 7.7355627,10.90432 7.6926827,10.90432 7.6498127,10.99034 7.6069327,10.99034"
               id="path3080"
               style="fill:none;stroke:#201e1e;stroke-width:0.05" /><path
               d="M 2.3332027,10.90432 C 2.3719127,10.90433 2.4189527,10.99034 2.4618327,10.99034 2.5047027,10.99034 2.5475827,10.90432 2.5904527,10.90432 2.6333327,10.90432 2.6762027,10.99034 2.7190827,10.99034 2.7619627,10.99034 2.8048327,10.90432 2.8477127,10.90432 2.8905927,10.90432 2.9334627,10.99034 2.9763427,10.99034 3.0192127,10.99034 3.0620927,10.90432 3.1049627,10.90432 3.1478427,10.90432 3.1907127,10.99034 3.2335927,10.99034 3.2764727,10.99034 3.3193427,10.90432 3.3622227,10.90432 3.4051027,10.90432 3.4479727,10.99034 3.4908527,10.99034 3.5337227,10.99034 3.5766027,10.90432 3.6194727,10.90432"
               id="path3082"
               style="fill:none;stroke:#201e1e;stroke-width:0.05" /><path
               d="M 5.0807193,4.8976748 5.062427,4.2300014"
               id="path4096"
               style="fill:none;stroke:#ff0000;stroke-width:0.04515555;stroke-linecap:butt;stroke-linejoin:miter;stroke-miterlimit:4;stroke-opacity:1;stroke-dasharray:none" /><path
               d="M 4.9368192,9.7155845 4.9356685,4.6568951 C 6.3846549,7.2630287 6.9378339,8.0483874 8.1267569,9.7154838 L 4.9368192,9.7155845 z"
               id="path3084"
               style="fill:#fefefe;stroke:#201e1e;stroke-width:0.04787154" /><path
               d="M 1.0469227,10.90432 C 1.0829927,10.88021 1.1326727,10.99034 1.1755527,10.99034 1.2184227,10.99034 1.2613027,10.90432 1.3041827,10.90432 1.3470527,10.90432 1.3899327,10.99034 1.4328027,10.99034 1.4756827,10.99034 1.5185527,10.90432 1.5614327,10.90432 1.6043127,10.90432 1.6471827,10.99034 1.6900627,10.99034 1.7329427,10.99034 1.7758127,10.90432 1.8186927,10.90432 1.8615627,10.90432 1.9044427,10.99034 1.9473127,10.99034 1.9901927,10.99034 2.0330627,10.90432 2.0759427,10.90432 2.1188227,10.90432 2.1616927,10.99034 2.2045727,10.99034 2.2474527,10.99034 2.2903227,10.90432 2.3332027,10.90432"
               id="path3086"
               style="fill:none;stroke:#201e1e;stroke-width:0.05" /><line
               class="fil1 str2"
               x1="7.9039826"
               y1="9.8135195"
               x2="8.025383"
               y2="10.487121"
               id="line3088"
               style="fill:none;stroke:#201e1e;stroke-width:0.06" /><line
               class="fil1 str3"
               x1="4.9366632"
               y1="9.5527897"
               x2="7.9220905"
               y2="9.4409504"
               id="line3090"
               style="fill:none;stroke:#a9abae;stroke-width:0.01986133;stroke-dasharray:0.01986133, 0.01986133" /><line
               class="fil1 str3"
               x1="4.9366879"
               y1="9.2972651"
               x2="7.7579284"
               y2="9.1853762"
               id="line3092"
               style="fill:none;stroke:#a9abae;stroke-width:0.01991162;stroke-dasharray:0.01991162, 0.01991162" /><line
               class="fil1 str3"
               x1="4.9366684"
               y1="8.9635839"
               x2="7.5284915"
               y2="8.8516569"
               id="line3094"
               style="fill:none;stroke:#a9abae;stroke-width:0.01987216;stroke-dasharray:0.01987216, 0.01987216" /><line
               class="fil1 str3"
               x1="4.9366279"
               y1="8.6246252"
               x2="7.2990394"
               y2="8.5127153"
               id="line3096"
               style="fill:none;stroke:#a9abae;stroke-width:0.01979102;stroke-dasharray:0.01979102, 0.01979102" /><line
               class="fil1 str3"
               x1="4.9365206"
               y1="8.280632"
               x2="7.0373058"
               y2="8.1684084"
               id="line3098"
               style="fill:none;stroke:#a9abae;stroke-width:0.01957649;stroke-dasharray:0.01957649, 0.01957649" /><line
               class="fil1 str3"
               x1="4.9364753"
               y1="7.9260774"
               x2="6.8103647"
               y2="7.8137631"
               id="line3100"
               style="fill:none;stroke:#a9abae;stroke-width:0.01948599;stroke-dasharray:0.01948599, 0.01948599" /><line
               class="fil1 str3"
               x1="4.9363914"
               y1="7.5402617"
               x2="6.5618162"
               y2="7.4278798"
               id="line3102"
               style="fill:none;stroke:#a9abae;stroke-width:0.01931833;stroke-dasharray:0.01931833, 0.01931833" /><line
               class="fil1 str3"
               x1="4.9362636"
               y1="7.2102895"
               x2="6.3414154"
               y2="7.097652"
               id="line3104"
               style="fill:none;stroke:#a9abae;stroke-width:0.01906275;stroke-dasharray:0.01906275, 0.01906275" /><line
               class="fil1 str3"
               x1="4.9361539"
               y1="6.8313985"
               x2="6.1184397"
               y2="6.7184424"
               id="line3106"
               style="fill:none;stroke:#a9abae;stroke-width:0.01884272;stroke-dasharray:0.01884272, 0.01884272" /><line
               class="fil1 str3"
               x1="4.9361238"
               y1="6.4559288"
               x2="5.9294515"
               y2="6.3430119"
               id="line3108"
               style="fill:none;stroke:#a9abae;stroke-width:0.01878329;stroke-dasharray:0.01878329, 0.01878329" /><line
               class="fil1 str3"
               x1="4.9356184"
               y1="6.0706339"
               x2="5.6493535"
               y2="5.9566069"
               id="line3110"
               style="fill:none;stroke:#a9abae;stroke-width:0.01777246;stroke-dasharray:0.01777246, 0.01777246" /><line
               class="fil1 str3"
               x1="4.9353085"
               y1="5.7450447"
               x2="5.4849172"
               y2="5.6303968"
               id="line3112"
               style="fill:none;stroke:#a9abae;stroke-width:0.01715249;stroke-dasharray:0.01715249, 0.01715249" /><line
               class="fil1 str3"
               x1="4.9346323"
               y1="5.39112"
               x2="5.2734771"
               y2="5.2751207"
               id="line3114"
               style="fill:none;stroke:#a9abae;stroke-width:0.01580039;stroke-dasharray:0.01580039, 0.01580039" /><path
               d="M 4.5521333,4.8309724 4.6828593,4.559265"
               id="path4074"
               style="fill:none;stroke:#ff0000;stroke-width:0.04515555;stroke-linecap:butt;stroke-linejoin:miter;stroke-miterlimit:4;stroke-opacity:1;stroke-dasharray:none" /><path
               d="M 1.9405327,9.9879203 4.5564196,4.8285214 C 4.2351696,7.5554714 4.354716,7.278877 4.213436,10.020257 3.060566,9.942787 2.8726327,9.9195203 1.9405327,9.9879203 z"
               id="path3118"
               style="fill:#fefefe;stroke:#201e1e;stroke-width:0.05" /><polyline
               transform="matrix(0.95032957,0,0,1,0.44789791,-6.7777797)"
               style="fill:none;stroke:#a9abae;stroke-width:0.02;stroke-dasharray:0.02, 0.02"
               points="3.93534,16.7657 2.40186,15.2322 2.40186,16.7174 "
               class="fil1 str3"
               id="_263081688" /><polyline
               transform="matrix(1.0532475,0,0,0.99714016,0.07933887,-6.7303321)"
               style="fill:none;stroke:#a9abae;stroke-width:0.02;stroke-dasharray:0.02, 0.02"
               points="3.58595,16.7657 3.58595,16.4163 3.95328,16.4163 "
               class="fil1 str3"
               id="_263081592" /><polyline
               transform="matrix(0.95032957,0,0,1,0.44789791,-6.7777797)"
               style="fill:none;stroke:#a9abae;stroke-width:0.02;stroke-dasharray:0.02, 0.02"
               points="3.27622,16.7261 3.26266,16.093 3.9698,16.093 "
               class="fil1 str3"
               id="_263081496" /><polyline
               transform="matrix(0.95032957,0,0,1,0.44789791,-6.7777797)"
               style="fill:none;stroke:#a9abae;stroke-width:0.02;stroke-dasharray:0.02, 0.02"
               points="2.96022,16.7261 2.96022,15.7906 3.98531,15.7906 "
               class="fil1 str3"
               id="_263081400" /><polyline
               transform="matrix(0.95032957,0,0,1,0.44789791,-6.7777797)"
               style="fill:none;stroke:#a9abae;stroke-width:0.02;stroke-dasharray:0.02, 0.02"
               points="2.6942,16.711 2.68908,15.5194 3.99936,15.5194 "
               class="fil1 str3"
               id="_263081304" /><line
               style="fill:none;stroke:#a9abae;stroke-width:0.01949697;stroke-dasharray:0.01949697, 0.01949697"
               y2="8.4544201"
               x2="4.2631001"
               y1="8.4544201"
               x1="2.7304566"
               class="fil1 str3"
               id="_263081208" /><line
               style="fill:none;stroke:#a9abae;stroke-width:0.02014182;stroke-dasharray:0.02014182, 0.02014182"
               y2="8.946702"
               x2="2.4784861"
               y1="9.9523659"
               x1="2.4784861"
               class="fil1 str3"
               id="_263081112" /><line
               style="fill:none;stroke:#a9abae;stroke-width:0.02114341;stroke-dasharray:0.02114341, 0.02114341"
               y2="9.4557285"
               x2="2.2213745"
               y1="9.9513054"
               x1="2.2213745"
               class="fil1 str3"
               id="_263081016" /><line
               style="fill:none;stroke:#a9abae;stroke-width:0.01949697;stroke-dasharray:0.01949697, 0.01949697"
               y2="8.2070208"
               x2="4.2806435"
               y1="8.2070208"
               x1="2.8488011"
               class="fil1 str3"
               id="_263080920" /><line
               style="fill:none;stroke:#a9abae;stroke-width:0.01949697;stroke-dasharray:0.01949697, 0.01949697"
               y2="7.9449205"
               x2="4.2921424"
               y1="7.9449205"
               x1="2.9925859"
               class="fil1 str3"
               id="_263080824" /><line
               style="fill:none;stroke:#a9abae;stroke-width:0.01949697;stroke-dasharray:0.01949697, 0.01949697"
               y2="7.6969204"
               x2="4.2921424"
               y1="7.6969204"
               x1="3.1286445"
               class="fil1 str3"
               id="_263080728" /><line
               style="fill:none;stroke:#a9abae;stroke-width:0.01916478;stroke-dasharray:0.01916478, 0.01916478"
               y2="7.4436207"
               x2="4.3225117"
               y1="7.4436207"
               x1="3.2316277"
               class="fil1 str3"
               id="_263080632" /><line
               style="fill:none;stroke:#a9abae;stroke-width:0.0191221;stroke-dasharray:0.0191221, 0.0191221"
               y2="7.2073202"
               x2="4.3225536"
               y1="7.2073202"
               x1="3.3612204"
               class="fil1 str3"
               id="_263080536" /><line
               style="fill:none;stroke:#a9abae;stroke-width:0.01949697;stroke-dasharray:0.01949697, 0.01949697"
               y2="6.9815207"
               x2="4.3598061"
               y1="6.9815207"
               x1="3.4466817"
               class="fil1 str3"
               id="_263080440" /><line
               style="fill:none;stroke:#a9abae;stroke-width:0.01949697;stroke-dasharray:0.01949697, 0.01949697"
               y2="6.7335205"
               x2="4.3779097"
               y1="6.7335205"
               x1="3.582788"
               class="fil1 str3"
               id="_263080344" /><line
               style="fill:none;stroke:#a9abae;stroke-width:0.01841372;stroke-dasharray:0.01841372, 0.01841372"
               y2="6.4862204"
               x2="4.4055438"
               y1="6.4862204"
               x1="3.7287698"
               class="fil1 str3"
               id="_263080248" /><line
               style="fill:none;stroke:#a9abae;stroke-width:0.01827704;stroke-dasharray:0.01827704, 0.01827704"
               y2="6.2346201"
               x2="4.4056721"
               y1="6.2346201"
               x1="3.8602188"
               class="fil1 str3"
               id="_263080152" /><line
               style="fill:none;stroke:#a9abae;stroke-width:0.01835891;stroke-dasharray:0.01835891, 0.01835891"
               y2="6.0270205"
               x2="4.449976"
               y1="6.0270205"
               x1="3.9612958"
               class="fil1 str3"
               id="_263080056" /><line
               style="fill:none;stroke:#a9abae;stroke-width:0.01818243;stroke-dasharray:0.01818243, 0.01818243"
               y2="5.8011208"
               x2="4.4501414"
               y1="5.8011208"
               x1="4.0785956"
               class="fil1 str3"
               id="_263079960" /><line
               style="fill:none;stroke:#a9abae;stroke-width:0.01728567;stroke-dasharray:0.01728568, 0.01728568"
               y2="5.5334206"
               x2="4.5030065"
               y1="5.5334206"
               x1="4.2094784"
               class="fil1 str3"
               id="_263079864" /><line
               style="fill:none;stroke:#a9abae;stroke-width:0.01553051;stroke-dasharray:0.01553051, 0.01553051"
               y2="5.2874203"
               x2="4.5273671"
               y1="5.2874203"
               x1="4.3376417"
               class="fil1 str3"
               id="_263079744" /><line
               style="fill:none;stroke:#a9abae;stroke-width:0.01506443;stroke-dasharray:0.01506443, 0.01506443"
               y2="5.0334206"
               x2="4.5572028"
               y1="5.0334206"
               x1="4.4442959"
               class="fil1 str3"
               id="_263079672" /><path
               d="M 4.9324527,10.52942 4.8335527,10.52722 C 4.8335527,8.3977803 4.8334227,6.2373003 4.8334227,4.1078603 4.8355727,4.0137103 4.9268027,4.0101503 4.9324527,4.1078603 L 4.9324527,10.52942 z"
               id="path3145"
               style="fill:#fefefe;stroke:#201e1e;stroke-width:0.05;stroke-linejoin:round" /><line
               class="fil1 str2"
               x1="4.2120333"
               y1="10.012387"
               x2="5.0958838"
               y2="10.526855"
               id="line3143"
               style="fill:none;stroke:#201e1e;stroke-width:0.05719549" /><path
               d="M 4.9367327,9.8135203 4.9378827,9.7146203 C 6.0452027,9.7146203 7.1686627,9.7144903 8.2759827,9.7144903 8.3249327,9.7166503 8.3267827,9.8078703 8.2759827,9.8135203 L 4.9367327,9.8135203 z"
               id="path3147"
               style="fill:#fefefe;stroke:#201e1e;stroke-width:0.05;stroke-linejoin:round" /><polygon
               points="7.28901,18.868 7.64577,18.8732 7.74107,17.8214 7.23532,17.9156 "
               transform="translate(0.31043266,-6.7777797)"
               id="polygon3164"
               style="fill:#fefefe;stroke:#201e1e;stroke-width:0.05;stroke-linecap:round;stroke-linejoin:round" /><path
               d="M 4.7729018,4.5788811 4.7534998,10.063191"
               id="path3304"
               style="fill:none;stroke:#ff0000;stroke-width:0.04515555;stroke-linecap:butt;stroke-linejoin:miter;stroke-miterlimit:4;stroke-opacity:1;stroke-dasharray:none" /><path
               d="M 146.15931,150.04401 A 2.7546656,2.7546656 0 1 1 140.64998,150.04401 2.7546656,2.7546656 0 1 1 146.15931,150.04401 z"
               transform="matrix(0.02822222,0,0,0.02822222,0.68965904,0.27872937)"
               id="path3302"
               style="fill:#ffffff;fill-opacity:1;stroke:#000000;stroke-width:1.05799997;stroke-linecap:round;stroke-linejoin:round;stroke-miterlimit:4;stroke-opacity:1;stroke-dasharray:none" /><path
               d="M 1.940204,9.9855831 1.6750428,10.425363"
               id="path4076"
               style="fill:none;stroke:#000000;stroke-width:0.02822222px;stroke-linecap:butt;stroke-linejoin:miter;stroke-opacity:1" /><path
               d="M 4.9892573,4.2574402 5.0029766,10.188757"
               id="path4098"
               style="fill:none;stroke:#ff0000;stroke-width:0.04515555;stroke-linecap:butt;stroke-linejoin:miter;stroke-miterlimit:4;stroke-opacity:1;stroke-dasharray:none" /><path
               d="M 146.15931,150.04401 A 2.7546656,2.7546656 0 1 1 140.64998,150.04401 2.7546656,2.7546656 0 1 1 146.15931,150.04401 z"
               transform="matrix(0.02822222,0,0,0.02822222,0.95577933,-0.05030428)"
               id="path3302-2"
               style="fill:#ffffff;fill-opacity:1;fill-rule:evenodd;stroke:#000000;stroke-width:1.05799997;stroke-linecap:round;stroke-linejoin:round;stroke-miterlimit:4;stroke-opacity:1;stroke-dasharray:none" /></g></g></g></g><path
       d="M 3.3891844,12.582302 1.6506145,12.532199"
       id="path30746"
       style="fill:none;stroke:#000000;stroke-width:0.08762415;stroke-linecap:butt;stroke-linejoin:miter;stroke-miterlimit:4;stroke-opacity:1;stroke-dasharray:none;marker-start:url(#Arrow1Sstart);marker-end:none" /><g
       id="text31918"
       style="font-size:0.79039246px;font-style:normal;font-variant:normal;font-weight:normal;font-stretch:normal;text-align:start;line-height:125%;letter-spacing:0px;word-spacing:0px;writing-mode:lr-tb;text-anchor:start;fill:#000000;fill-opacity:1;fill-rule:evenodd;stroke:none;font-family:Arial;-inkscape-font-specification:Arial"><path
         d="M 1.333487,12.798693 1.2640189,12.798693 1.2640189,12.356027 C 1.2472949,12.371979 1.2252967,12.387931 1.1980242,12.403882 1.1710087,12.419835 1.1466949,12.431799 1.1250827,12.439774 L 1.1250827,12.372622 C 1.1639333,12.354355 1.1978954,12.332228 1.2269692,12.306241 1.2560427,12.280255 1.2766258,12.255041 1.2887186,12.230598 L 1.333487,12.230598 1.333487,12.798693"
         id="path5131" /></g><g
       id="text31918-4"
       style="font-size:0.77481687px;font-style:normal;font-variant:normal;font-weight:normal;font-stretch:normal;text-align:start;line-height:125%;letter-spacing:0px;word-spacing:0px;writing-mode:lr-tb;text-anchor:start;fill:#000000;fill-opacity:1;fill-rule:evenodd;stroke:none;font-family:Arial;-inkscape-font-specification:Arial"><path
         d="M 6.8081385,12.638178 6.8081385,12.703629 6.4415381,12.703629 C 6.4410337,12.687234 6.443682,12.671471 6.449483,12.656337 6.4588151,12.631368 6.473696,12.606777 6.4941258,12.582563 6.5148077,12.558351 6.5445695,12.530354 6.5834113,12.498574 6.6436915,12.44914 6.6844248,12.410046 6.7056115,12.381293 6.7267975,12.352288 6.7373907,12.324922 6.7373911,12.299195 6.7373907,12.272208 6.7276803,12.249509 6.7082598,12.231096 6.6890908,12.212432 6.6639951,12.2031 6.6329724,12.2031 6.6001837,12.2031 6.573953,12.212937 6.55428,12.232609 6.5346068,12.252283 6.5246442,12.279523 6.5243921,12.314328 L 6.4544013,12.30714 C 6.4591934,12.254931 6.4772271,12.215207 6.5085023,12.187967 6.5397773,12.160475 6.5817717,12.146729 6.6344857,12.146729 6.6877036,12.146729 6.7298242,12.161484 6.7608474,12.190993 6.79187,12.220503 6.8073814,12.257075 6.8073818,12.300709 6.8073814,12.322904 6.8028415,12.344721 6.793762,12.366159 6.7846818,12.387598 6.7695486,12.410172 6.7483626,12.43388 6.7274281,12.457589 6.6924958,12.490125 6.6435656,12.531489 6.6027059,12.565791 6.5764752,12.589121 6.5648732,12.60148 6.553271,12.613586 6.5436867,12.625819 6.5361203,12.638178 L 6.8081385,12.638178"
         id="path5134" /></g><path
       d="M 4.4423097,12.489226 6.1808797,12.439123"
       id="path30746-1"
       style="fill:none;stroke:#000000;stroke-width:0.08762415;stroke-linecap:butt;stroke-linejoin:miter;stroke-miterlimit:4;stroke-opacity:1;stroke-dasharray:none;marker-start:url(#Arrow1Sstart);marker-end:none" /></g></svg>